<?xml version="1.0" encoding="utf-8"?>
<svg version="1.1" xmlns:xlink="http://www.w3.org/1999/xlink" width="140px" height="40px" xmlns="http://www.w3.org/2000/svg">
  <defs>
    <mask fill="white" id="clip24">
      <path d="M 0 35  L 0 5  C 0 2.1999999999999886  2.1999999999999886 0  5 0  L 84.4545454545455 0  L 135 0  C 137.79999999999995 0  140 2.1999999999999886  140 5  L 140 35  C 140 37.80000000000001  137.79999999999995 40  135 40  L 100.36363636363639 40  L 5 40  C 2.1999999999999886 40  0 37.80000000000001  0 35  Z " fill-rule="evenodd" />
    </mask>
  </defs>
  <g transform="matrix(1 0 0 1 -804 -433 )">
    <path d="M 0 35  L 0 5  C 0 2.1999999999999886  2.1999999999999886 0  5 0  L 84.4545454545455 0  L 135 0  C 137.79999999999995 0  140 2.1999999999999886  140 5  L 140 35  C 140 37.80000000000001  137.79999999999995 40  135 40  L 100.36363636363639 40  L 5 40  C 2.1999999999999886 40  0 37.80000000000001  0 35  Z " fill-rule="nonzero" fill="#2a7f62" stroke="none" transform="matrix(1 0 0 1 804 433 )" />
    <path d="M 0 35  L 0 5  C 0 2.1999999999999886  2.1999999999999886 0  5 0  L 84.4545454545455 0  L 135 0  C 137.79999999999995 0  140 2.1999999999999886  140 5  L 140 35  C 140 37.80000000000001  137.79999999999995 40  135 40  L 100.36363636363639 40  L 5 40  C 2.1999999999999886 40  0 37.80000000000001  0 35  Z " stroke-width="2" stroke="#797979" fill="none" transform="matrix(1 0 0 1 804 433 )" mask="url(#clip24)" />
  </g>
</svg>