<?xml version="1.0" encoding="utf-8"?>
<svg version="1.1" xmlns:xlink="http://www.w3.org/1999/xlink" width="117px" height="40px" xmlns="http://www.w3.org/2000/svg">
  <defs>
    <mask fill="white" id="clip33">
      <path d="M 0 35  L 0 5  C 0 2.1999999999999886  1.838571428571419 0  4.178571428571428 0  L 70.57987012987017 0  L 112.82142857142857 0  C 115.16142857142853 0  117 2.1999999999999886  117 5  L 117 35  C 117 37.80000000000001  115.16142857142853 40  112.82142857142857 40  L 83.87532467532469 40  L 4.178571428571428 40  C 1.838571428571419 40  0 37.80000000000001  0 35  Z " fill-rule="evenodd" />
    </mask>
  </defs>
  <g transform="matrix(1 0 0 1 -1050 -714 )">
    <path d="M 0 35  L 0 5  C 0 2.1999999999999886  1.838571428571419 0  4.178571428571428 0  L 70.57987012987017 0  L 112.82142857142857 0  C 115.16142857142853 0  117 2.1999999999999886  117 5  L 117 35  C 117 37.80000000000001  115.16142857142853 40  112.82142857142857 40  L 83.87532467532469 40  L 4.178571428571428 40  C 1.838571428571419 40  0 37.80000000000001  0 35  Z " fill-rule="nonzero" fill="#d9001b" stroke="none" transform="matrix(1 0 0 1 1050 714 )" />
    <path d="M 0 35  L 0 5  C 0 2.1999999999999886  1.838571428571419 0  4.178571428571428 0  L 70.57987012987017 0  L 112.82142857142857 0  C 115.16142857142853 0  117 2.1999999999999886  117 5  L 117 35  C 117 37.80000000000001  115.16142857142853 40  112.82142857142857 40  L 83.87532467532469 40  L 4.178571428571428 40  C 1.838571428571419 40  0 37.80000000000001  0 35  Z " stroke-width="2" stroke="#797979" fill="none" transform="matrix(1 0 0 1 1050 714 )" mask="url(#clip33)" />
  </g>
</svg>