<?xml version="1.0" encoding="utf-8"?>
<svg version="1.1" xmlns:xlink="http://www.w3.org/1999/xlink" width="11px" height="25px" xmlns="http://www.w3.org/2000/svg">
  <g transform="matrix(1 0 0 1 -651 -644 )">
    <path d="M 10.846895074946467 15.220424107142858  C 10.948965024982156 15.629650297619047  11.000000000000002 16.066778273809522  11 16.531808035714285  C 11.000000000000002 17.954799107142858  10.609386152748039 19.180152529761905  9.828158458244111 20.20786830357143  C 9.046930763740185 21.235584077380953  8.032119914346895 21.870349702380953  6.7837259100642395 22.112165178571427  L 6.7837259100642395 24.553571428571427  C 6.7837259100642395 24.683779761904763  6.748394004282655 24.790736607142858  6.677730192719486 24.874441964285715  C 6.607066381156317 24.958147321428573  6.516773733047823 25  6.406852248394004 25  L 4.816916488222698 25  C 4.714846538187009 25  4.626516773733048 24.955822172619047  4.551927194860814 24.867466517857142  C 4.47733761598858 24.779110863095237  4.440042826552462 24.674479166666668  4.440042826552462 24.553571428571427  L 4.440042826552462 22.112165178571427  C 3.9218415417558887 22.028459821428573  3.4213062098501075 21.884300595238095  2.938436830835118 21.6796875  C 2.4555674518201283 21.475074404761905  2.057102069950036 21.268136160714285  1.7430406852248395 21.058872767857142  C 1.4289793004996432 20.849609375  1.1384725196288368 20.626395089285715  0.8715203426124197 20.389229910714285  C 0.604568165596003 20.152064732142858  0.4220199857244826 19.97767857142857  0.3238758029978587 19.86607142857143  C 0.2257316202712349 19.754464285714285  0.15703069236259817 19.67075892857143  0.1177730192719486 19.614955357142858  C -0.01570306923625976 19.419642857142858  -0.023554603854389723 19.228980654761905  0.09421841541755889 19.04296875  L 1.3072805139186294 17.159598214285715  C 1.362241256245539 17.066592261904763  1.452533904354033 17.01078869047619  1.5781584582441113 16.9921875  C 1.6959314775160599 16.973586309523807  1.790149892933619 17.015438988095237  1.860813704496788 17.117745535714285  L 1.8843683083511775 17.14564732142857  C 2.7715917201998574 18.06640625  3.725553176302641 18.647693452380953  4.7462526766595285 18.88950892857143  C 5.036759457530335 18.96391369047619  5.327266238401143 19.00111607142857  5.617773019271948 19.00111607142857  C 6.253747323340471 19.00111607142857  6.813169164882227 18.801153273809522  7.296038543897216 18.40122767857143  C 7.778907922912206 18.001302083333332  8.0203426124197 17.433965773809522  8.0203426124197 16.69921875  C 8.0203426124197 16.438802083333332  7.9614561027837265 16.192336309523807  7.8436830835117775 15.95982142857143  C 7.725910064239828 15.727306547619047  7.594396859386153 15.531994047619047  7.44914346895075 15.37388392857143  C 7.303890078515347 15.215773809523808  7.074232690935048 15.041387648809524  6.76017130620985 14.85072544642857  C 6.446109921484655 14.660063244047617  6.187009279086367 14.511253720238093  5.982869379014989 14.404296875  C 5.778729478943613 14.297340029761903  5.464668094218415 14.146205357142858  5.0406852248394 13.950892857142858  C 4.734475374732334 13.802083333333332  4.493040685224839 13.685825892857142  4.3163811563169165 13.602120535714285  C 4.139721627408994 13.51841517857143  3.8982869379014993 13.395182291666666  3.592077087794433 13.232421875  C 3.285867237687366 13.069661458333332  3.040506780870807 12.925502232142858  2.855995717344754 12.79994419642857  C 2.6714846538187014 12.674386160714285  2.449678800856531 12.509300595238093  2.190578158458244 12.3046875  C 1.931477516059957 12.100074404761903  1.7214489650249825 11.902436755952381  1.560492505353319 11.711774553571427  C 1.3995360456816561 11.521112351190474  1.2287651677373306 11.293247767857142  1.0481798715203425 11.028180803571427  C 0.8675945753033548 10.763113839285712  0.728229835831549 10.49339657738095  0.630085653104925 10.219029017857142  C 0.5319414703783013 9.944661458333332  0.44950035688793727 9.635416666666666  0.382762312633833 9.291294642857142  C 0.31602426837972886 8.947172619047619  0.2826552462526767 8.584449404761903  0.2826552462526767 8.203125  C 0.2826552462526767 6.919642857142858  0.667380442541042 5.794270833333331  1.4368308351177728 4.827008928571427  C 2.2062812276945043 3.8597470238095206  3.2073518915060677 3.2366071428571423  4.440042826552462 2.9575892857142847  L 4.440042826552462 0.4464285714285726  C 4.440042826552462 0.3255208333333315  4.47733761598858 0.22088913690476164  4.551927194860814 0.13253348214285754  C 4.626516773733048 0.04417782738095344  4.714846538187009 0  4.816916488222698 0  L 6.406852248394004 0  C 6.516773733047823 0  6.607066381156317 0.04185267857142738  6.677730192719486 0.12555803571428492  C 6.748394004282655 0.20926339285714246  6.7837259100642395 0.3162202380952356  6.7837259100642395 0.4464285714285726  L 6.7837259100642395 2.9017857142857153  C 7.2312633832976445 2.9575892857142847  7.665060670949322 3.064546130952378  8.085117773019272 3.22265625  C 8.505174875089223 3.380766369047619  8.846716630977873 3.5365513392857153  9.109743040685226 3.6900111607142847  C 9.372769450392578 3.8434709821428577  9.622055674518203 4.017857142857142  9.857601713062099 4.213169642857142  C 10.093147751605997 4.408482142857142  10.246252676659529 4.54334077380952  10.316916488222699 4.617745535714285  C 10.387580299785867 4.692150297619047  10.44646680942184 4.757254464285715  10.493576017130621 4.813058035714285  C 10.62705210563883 4.98046875  10.646680942184155 5.157180059523808  10.552462526766595 5.343191964285715  L 9.598501070663811 7.380022321428573  C 9.535688793718773 7.51953125  9.445396145610278 7.593936011904762  9.32762312633833 7.603236607142858  C 9.217701641684512 7.631138392857142  9.111705924339757 7.598586309523808  9.009635974304068 7.505580357142858  C 8.986081370449678 7.477678571428573  8.929157744468238 7.421875  8.838865096359743 7.338169642857142  C 8.74857244825125 7.254464285714285  8.595467523197717 7.13123139880952  8.379550321199144 6.968470982142858  C 8.163633119200572 6.805710565476189  7.933975731620272 6.656901041666666  7.690578158458243 6.522042410714285  C 7.447180585296218 6.387183779761904  7.154710920770878 6.266276041666666  6.813169164882227 6.159319196428573  C 6.471627408993576 6.052362351190474  6.135974304068522 5.998883928571427  5.8062098501070665 5.998883928571427  C 5.060314061384726 5.998883928571427  4.451820128479658 6.198846726190474  3.9807280513918633 6.598772321428573  C 3.509635974304069 6.998697916666666  3.2740899357601716 7.514880952380951  3.2740899357601716 8.147321428571427  C 3.2740899357601716 8.389136904761903  3.307458957887224 8.61235119047619  3.3741970021413277 8.816964285714285  C 3.440935046395432 9.021577380952378  3.5567451820128477 9.214564732142858  3.721627408993576 9.395926339285715  C 3.886509635974304 9.577287946428573  4.04157744468237 9.730747767857142  4.186830835117773 9.856305803571427  C 4.332084225553177 9.981863839285715  4.551927194860814 10.12602306547619  4.8463597430406855 10.288783482142858  C 5.140792291220556 10.45154389880952  5.378301213418987 10.577101934523808  5.5588865096359745 10.665457589285715  C 5.739471805852962 10.753813244047619  6.014275517487509 10.881696428571427  6.383297644539615 11.049107142857142  C 6.799428979300501 11.235119047619047  7.117416131334762 11.381603422619047  7.337259100642399 11.488560267857142  C 7.557102069950037 11.595517113095239  7.855460385438971 11.758277529761903  8.232334047109207 11.976841517857142  C 8.609207708779444 12.195405505952381  8.905603140613847 12.393043154761903  9.12152034261242 12.569754464285715  C 9.337437544610994 12.746465773809524  9.58083511777302 12.978980654761903  9.8517130620985 13.267299107142858  C 10.122591006423985 13.555617559523808  10.330656673804427 13.850911458333332  10.475910064239828 14.15318080357143  C 10.621163454675232 14.455450148809524  10.744825124910777 14.811197916666663  10.846895074946467 15.220424107142858  Z " fill-rule="nonzero" fill="#043f60" stroke="none" transform="matrix(1 0 0 1 651 644 )" />
  </g>
</svg>