<?xml version="1.0" encoding="utf-8"?>
<svg version="1.1" xmlns:xlink="http://www.w3.org/1999/xlink" width="95px" height="100px" xmlns="http://www.w3.org/2000/svg">
  <defs>
    <mask fill="white" id="clip15">
      <path d="M 66.37276785714286 87.97433035714286  C 72.20424107142857 84.71912202380953  76.99311755952382 80.30133928571428  80.73939732142857 74.72098214285714  C 79.96186755952382 68.95461309523809  78.41564360119048 64.16480654761905  76.10072544642857 60.3515625  C 73.78580729166667 56.538318452380956  70.5254836309524 54.33407738095237  66.31975446428572 53.73883928571428  C 63.95182291666667 56.49181547619047  61.133277529761905 58.64025297619047  57.86411830357142 60.18415178571428  C 54.59495907738096 61.728050595238095  51.14025297619048 62.5  47.5 62.5  C 43.859747023809526 62.5  40.40504092261905 61.728050595238095  37.13588169642857 60.18415178571428  C 33.8667224702381 58.64025297619047  31.048177083333336 56.49181547619047  28.68024553571429 53.73883928571428  C 24.474516369047617 54.33407738095237  21.214192708333336 56.538318452380956  18.89927455357143 60.3515625  C 16.584356398809526 64.16480654761905  15.038132440476192 68.95461309523809  14.260602678571429 74.72098214285714  C 18.00688244047619 80.30133928571428  22.79575892857143 84.71912202380953  28.627232142857142 87.97433035714286  C 34.45870535714286 91.22953869047619  40.74962797619048 92.85714285714286  47.5 92.85714285714286  C 54.250372023809526 92.85714285714286  60.54129464285714 91.22953869047619  66.37276785714286 87.97433035714286  Z M 61.893136160714285 50.86495535714286  C 65.869140625 46.6796875  67.85714285714286 41.62946428571429  67.85714285714286 35.71428571428571  C 67.85714285714286 29.79910714285714  65.869140625 24.74888392857143  61.893136160714285 20.56361607142857  C 57.91713169642858 16.378348214285708  53.11941964285714 14.28571428571429  47.5 14.28571428571429  C 41.88058035714286 14.28571428571429  37.08286830357143 16.378348214285708  33.106863839285715 20.56361607142857  C 29.130859375 24.74888392857143  27.142857142857142 29.79910714285714  27.142857142857142 35.71428571428571  C 27.142857142857142 41.62946428571429  29.130859375 46.6796875  33.106863839285715 50.86495535714286  C 37.08286830357143 55.05022321428572  41.88058035714286 57.14285714285714  47.5 57.14285714285714  C 53.11941964285714 57.14285714285714  57.91713169642858 55.05022321428572  61.893136160714285 50.86495535714286  Z M 91.23604910714286 30.58035714285714  C 93.74534970238096 36.75595238095237  95 43.229166666666664  95 50  C 95 56.77083333333333  93.74534970238096 63.23474702380951  91.23604910714286 69.39174107142857  C 88.72674851190477 75.54873511904762  85.3603980654762 80.86867559523809  81.13699776785714 85.3515625  C 76.9135974702381 89.8344494047619  71.86848958333334 93.39657738095238  66.00167410714286 96.03794642857143  C 60.13485863095239 98.67931547619048  53.96763392857142 100  47.5 100  C 41.067708333333336 100  34.918154761904766 98.67931547619048  29.05133928571429 96.03794642857143  C 23.18452380952381 93.39657738095238  18.130580357142858 89.84375  13.889508928571429 85.37946428571428  C 9.6484375 80.91517857142857  6.273251488095238 75.59523809523809  3.763950892857143 69.41964285714286  C 1.2546502976190474 63.24404761904761  0 56.77083333333333  0 50  C 0 43.229166666666664  1.2546502976190474 36.75595238095237  3.763950892857143 30.58035714285714  C 6.273251488095238 24.404761904761894  9.6484375 19.08482142857143  13.889508928571429 14.62053571428571  C 18.130580357142858 10.15625  23.18452380952381 6.603422619047617  29.05133928571429 3.96205357142857  C 34.918154761904766 1.3206845238095233  41.067708333333336 0  47.5 0  C 53.93229166666667 0  60.08184523809525 1.3206845238095233  65.94866071428572 3.96205357142857  C 71.8154761904762 6.603422619047617  76.86941964285714 10.15625  81.11049107142857 14.62053571428571  C 85.35156250000001 19.08482142857143  88.72674851190477 24.404761904761894  91.23604910714286 30.58035714285714  Z " fill-rule="evenodd" />
    </mask>
  </defs>
  <g transform="matrix(1 0 0 1 -117 -191 )">
    <path d="M 66.37276785714286 87.97433035714286  C 72.20424107142857 84.71912202380953  76.99311755952382 80.30133928571428  80.73939732142857 74.72098214285714  C 79.96186755952382 68.95461309523809  78.41564360119048 64.16480654761905  76.10072544642857 60.3515625  C 73.78580729166667 56.538318452380956  70.5254836309524 54.33407738095237  66.31975446428572 53.73883928571428  C 63.95182291666667 56.49181547619047  61.133277529761905 58.64025297619047  57.86411830357142 60.18415178571428  C 54.59495907738096 61.728050595238095  51.14025297619048 62.5  47.5 62.5  C 43.859747023809526 62.5  40.40504092261905 61.728050595238095  37.13588169642857 60.18415178571428  C 33.8667224702381 58.64025297619047  31.048177083333336 56.49181547619047  28.68024553571429 53.73883928571428  C 24.474516369047617 54.33407738095237  21.214192708333336 56.538318452380956  18.89927455357143 60.3515625  C 16.584356398809526 64.16480654761905  15.038132440476192 68.95461309523809  14.260602678571429 74.72098214285714  C 18.00688244047619 80.30133928571428  22.79575892857143 84.71912202380953  28.627232142857142 87.97433035714286  C 34.45870535714286 91.22953869047619  40.74962797619048 92.85714285714286  47.5 92.85714285714286  C 54.250372023809526 92.85714285714286  60.54129464285714 91.22953869047619  66.37276785714286 87.97433035714286  Z M 61.893136160714285 50.86495535714286  C 65.869140625 46.6796875  67.85714285714286 41.62946428571429  67.85714285714286 35.71428571428571  C 67.85714285714286 29.79910714285714  65.869140625 24.74888392857143  61.893136160714285 20.56361607142857  C 57.91713169642858 16.378348214285708  53.11941964285714 14.28571428571429  47.5 14.28571428571429  C 41.88058035714286 14.28571428571429  37.08286830357143 16.378348214285708  33.106863839285715 20.56361607142857  C 29.130859375 24.74888392857143  27.142857142857142 29.79910714285714  27.142857142857142 35.71428571428571  C 27.142857142857142 41.62946428571429  29.130859375 46.6796875  33.106863839285715 50.86495535714286  C 37.08286830357143 55.05022321428572  41.88058035714286 57.14285714285714  47.5 57.14285714285714  C 53.11941964285714 57.14285714285714  57.91713169642858 55.05022321428572  61.893136160714285 50.86495535714286  Z M 91.23604910714286 30.58035714285714  C 93.74534970238096 36.75595238095237  95 43.229166666666664  95 50  C 95 56.77083333333333  93.74534970238096 63.23474702380951  91.23604910714286 69.39174107142857  C 88.72674851190477 75.54873511904762  85.3603980654762 80.86867559523809  81.13699776785714 85.3515625  C 76.9135974702381 89.8344494047619  71.86848958333334 93.39657738095238  66.00167410714286 96.03794642857143  C 60.13485863095239 98.67931547619048  53.96763392857142 100  47.5 100  C 41.067708333333336 100  34.918154761904766 98.67931547619048  29.05133928571429 96.03794642857143  C 23.18452380952381 93.39657738095238  18.130580357142858 89.84375  13.889508928571429 85.37946428571428  C 9.6484375 80.91517857142857  6.273251488095238 75.59523809523809  3.763950892857143 69.41964285714286  C 1.2546502976190474 63.24404761904761  0 56.77083333333333  0 50  C 0 43.229166666666664  1.2546502976190474 36.75595238095237  3.763950892857143 30.58035714285714  C 6.273251488095238 24.404761904761894  9.6484375 19.08482142857143  13.889508928571429 14.62053571428571  C 18.130580357142858 10.15625  23.18452380952381 6.603422619047617  29.05133928571429 3.96205357142857  C 34.918154761904766 1.3206845238095233  41.067708333333336 0  47.5 0  C 53.93229166666667 0  60.08184523809525 1.3206845238095233  65.94866071428572 3.96205357142857  C 71.8154761904762 6.603422619047617  76.86941964285714 10.15625  81.11049107142857 14.62053571428571  C 85.35156250000001 19.08482142857143  88.72674851190477 24.404761904761894  91.23604910714286 30.58035714285714  Z " fill-rule="nonzero" fill="#020202" stroke="none" transform="matrix(1 0 0 1 117 191 )" />
    <path d="M 66.37276785714286 87.97433035714286  C 72.20424107142857 84.71912202380953  76.99311755952382 80.30133928571428  80.73939732142857 74.72098214285714  C 79.96186755952382 68.95461309523809  78.41564360119048 64.16480654761905  76.10072544642857 60.3515625  C 73.78580729166667 56.538318452380956  70.5254836309524 54.33407738095237  66.31975446428572 53.73883928571428  C 63.95182291666667 56.49181547619047  61.133277529761905 58.64025297619047  57.86411830357142 60.18415178571428  C 54.59495907738096 61.728050595238095  51.14025297619048 62.5  47.5 62.5  C 43.859747023809526 62.5  40.40504092261905 61.728050595238095  37.13588169642857 60.18415178571428  C 33.8667224702381 58.64025297619047  31.048177083333336 56.49181547619047  28.68024553571429 53.73883928571428  C 24.474516369047617 54.33407738095237  21.214192708333336 56.538318452380956  18.89927455357143 60.3515625  C 16.584356398809526 64.16480654761905  15.038132440476192 68.95461309523809  14.260602678571429 74.72098214285714  C 18.00688244047619 80.30133928571428  22.79575892857143 84.71912202380953  28.627232142857142 87.97433035714286  C 34.45870535714286 91.22953869047619  40.74962797619048 92.85714285714286  47.5 92.85714285714286  C 54.250372023809526 92.85714285714286  60.54129464285714 91.22953869047619  66.37276785714286 87.97433035714286  Z " stroke-width="6" stroke="#043f60" fill="none" transform="matrix(1 0 0 1 117 191 )" mask="url(#clip15)" />
    <path d="M 61.893136160714285 50.86495535714286  C 65.869140625 46.6796875  67.85714285714286 41.62946428571429  67.85714285714286 35.71428571428571  C 67.85714285714286 29.79910714285714  65.869140625 24.74888392857143  61.893136160714285 20.56361607142857  C 57.91713169642858 16.378348214285708  53.11941964285714 14.28571428571429  47.5 14.28571428571429  C 41.88058035714286 14.28571428571429  37.08286830357143 16.378348214285708  33.106863839285715 20.56361607142857  C 29.130859375 24.74888392857143  27.142857142857142 29.79910714285714  27.142857142857142 35.71428571428571  C 27.142857142857142 41.62946428571429  29.130859375 46.6796875  33.106863839285715 50.86495535714286  C 37.08286830357143 55.05022321428572  41.88058035714286 57.14285714285714  47.5 57.14285714285714  C 53.11941964285714 57.14285714285714  57.91713169642858 55.05022321428572  61.893136160714285 50.86495535714286  Z " stroke-width="6" stroke="#043f60" fill="none" transform="matrix(1 0 0 1 117 191 )" mask="url(#clip15)" />
    <path d="M 91.23604910714286 30.58035714285714  C 93.74534970238096 36.75595238095237  95 43.229166666666664  95 50  C 95 56.77083333333333  93.74534970238096 63.23474702380951  91.23604910714286 69.39174107142857  C 88.72674851190477 75.54873511904762  85.3603980654762 80.86867559523809  81.13699776785714 85.3515625  C 76.9135974702381 89.8344494047619  71.86848958333334 93.39657738095238  66.00167410714286 96.03794642857143  C 60.13485863095239 98.67931547619048  53.96763392857142 100  47.5 100  C 41.067708333333336 100  34.918154761904766 98.67931547619048  29.05133928571429 96.03794642857143  C 23.18452380952381 93.39657738095238  18.130580357142858 89.84375  13.889508928571429 85.37946428571428  C 9.6484375 80.91517857142857  6.273251488095238 75.59523809523809  3.763950892857143 69.41964285714286  C 1.2546502976190474 63.24404761904761  0 56.77083333333333  0 50  C 0 43.229166666666664  1.2546502976190474 36.75595238095237  3.763950892857143 30.58035714285714  C 6.273251488095238 24.404761904761894  9.6484375 19.08482142857143  13.889508928571429 14.62053571428571  C 18.130580357142858 10.15625  23.18452380952381 6.603422619047617  29.05133928571429 3.96205357142857  C 34.918154761904766 1.3206845238095233  41.067708333333336 0  47.5 0  C 53.93229166666667 0  60.08184523809525 1.3206845238095233  65.94866071428572 3.96205357142857  C 71.8154761904762 6.603422619047617  76.86941964285714 10.15625  81.11049107142857 14.62053571428571  C 85.35156250000001 19.08482142857143  88.72674851190477 24.404761904761894  91.23604910714286 30.58035714285714  Z " stroke-width="6" stroke="#043f60" fill="none" transform="matrix(1 0 0 1 117 191 )" mask="url(#clip15)" />
  </g>
</svg>