<?xml version="1.0" encoding="utf-8"?>
<svg version="1.1" xmlns:xlink="http://www.w3.org/1999/xlink" width="16px" height="14px" xmlns="http://www.w3.org/2000/svg">
  <g transform="matrix(1 0 0 1 -627 -478 )">
    <path d="M 15.710967741935484 1.9326599326599332  C 15.903655913978497 2.1526374859708186  16.000000000000004 2.419753086419753  16 2.734006734006734  C 16.000000000000004 3.0482603815937135  15.903655913978497 3.3153759820426476  15.710967741935484 3.5353535353535346  L 8.23741935483871 12.067340067340067  L 6.833548387096775 13.67003367003367  C 6.640860215053764 13.890011223344557  6.406881720430109 14  6.131612903225807 14  C 5.8563440860215055 14  5.62236559139785 13.890011223344557  5.429677419354839 13.67003367003367  L 4.025806451612903 12.067340067340067  L 0.28903225806451616 7.801346801346803  C 0.09634408602150547 7.581369248035914  0 7.3142536475869795  0 7  C 0 6.685746352413019  0.09634408602150547 6.418630751964085  0.28903225806451616 6.198653198653199  L 1.6929032258064516 4.595959595959596  C 1.8855913978494625 4.375982042648709  2.1195698924731188 4.265993265993265  2.3948387096774195 4.2659932659932664  C 2.670107526881721 4.265993265993265  2.9040860215053765 4.375982042648709  3.096774193548387 4.595959595959596  L 6.131612903225807 8.072390572390571  L 12.903225806451612 0.32996632996633  C 13.095913978494625 0.10998877665544282  13.329892473118282 0  13.605161290322581 0  C 13.880430107526882 0  14.114408602150538 0.10998877665544282  14.307096774193548 0.32996632996633  L 15.710967741935484 1.9326599326599332  Z " fill-rule="nonzero" fill="#2a7f62" stroke="none" transform="matrix(1 0 0 1 627 478 )" />
  </g>
</svg>