<?xml version="1.0" encoding="utf-8"?>
<svg version="1.1" xmlns:xlink="http://www.w3.org/1999/xlink" width="234px" height="53px" xmlns="http://www.w3.org/2000/svg">
  <defs>
    <mask fill="white" id="clip20">
      <path d="M 0 46.375  L 0 6.625  C 0 2.914999999999985  3.677142857142838 0  8.357142857142856 0  L 141.15974025974035 0  L 225.64285714285714 0  C 230.32285714285706 0  234 2.914999999999985  234 6.625  L 234 46.375  C 234 50.085000000000015  230.32285714285706 53  225.64285714285714 53  L 167.75064935064938 53  L 8.357142857142856 53  C 3.677142857142838 53  0 50.085000000000015  0 46.375  Z " fill-rule="evenodd" />
    </mask>
  </defs>
  <g transform="matrix(1 0 0 1 -1669 -239 )">
    <path d="M 0 46.375  L 0 6.625  C 0 2.914999999999985  3.677142857142838 0  8.357142857142856 0  L 141.15974025974035 0  L 225.64285714285714 0  C 230.32285714285706 0  234 2.914999999999985  234 6.625  L 234 46.375  C 234 50.085000000000015  230.32285714285706 53  225.64285714285714 53  L 167.75064935064938 53  L 8.357142857142856 53  C 3.677142857142838 53  0 50.085000000000015  0 46.375  Z " fill-rule="nonzero" fill="#2a7f62" stroke="none" transform="matrix(1 0 0 1 1669 239 )" />
    <path d="M 0 46.375  L 0 6.625  C 0 2.914999999999985  3.677142857142838 0  8.357142857142856 0  L 141.15974025974035 0  L 225.64285714285714 0  C 230.32285714285706 0  234 2.914999999999985  234 6.625  L 234 46.375  C 234 50.085000000000015  230.32285714285706 53  225.64285714285714 53  L 167.75064935064938 53  L 8.357142857142856 53  C 3.677142857142838 53  0 50.085000000000015  0 46.375  Z " stroke-width="2" stroke="#797979" fill="none" transform="matrix(1 0 0 1 1669 239 )" mask="url(#clip20)" />
  </g>
</svg>